Coordinates
version=1
nRows=19
nColumns=34
inDegrees=no

Units are S.I. units (second, meters, Newtons, ...)
If the header above contains a line with 'inDegrees', this indicates whether rotational values are in degrees (yes) or radians (no).

endheader
time	pelvis_tilt	pelvis_list	pelvis_rotation	pelvis_tx	pelvis_ty	pelvis_tz	hip_flexion_r	hip_adduction_r	hip_rotation_r	knee_angle_r	ankle_angle_r	subtalar_angle_r	mtp_angle_r	hip_flexion_l	hip_adduction_l	hip_rotation_l	knee_angle_l	ankle_angle_l	subtalar_angle_l	mtp_angle_l	lumbar_extension	lumbar_bending	lumbar_rotation	arm_flex_r	arm_add_r	arm_rot_r	elbow_flex_r	pro_sup_r	arm_flex_l	arm_add_l	arm_rot_l	elbow_flex_l	pro_sup_l
1.39	-0.128331	-0.0548332	0.136239	-0.339841	0.779405	-0.607076	1.11406	-0.108958	-0.0887909	1.6403	0.629983	-0.121056	-0.0180727	1.11391	-0.0400349	0.0821656	1.66846	0.684467	-0.112656	-0.0180727	-0.522065	0.0395834	-0.00544244	1.67543	-0.783174	0.282177	1.90451	1.6735	1.77859	-0.622836	0.587798	1.64783	1.55065
1.4	-0.13327	-0.0543102	0.142038	-0.335224	0.7975	-0.607801	1.08009	-0.110166	-0.0940975	1.5864	0.612702	-0.129213	-0.0180727	1.08118	-0.0419426	0.0761922	1.6132	0.671251	-0.109933	-0.0180727	-0.500606	0.0381236	-0.0192182	1.75568	-0.822103	0.31339	1.93673	1.64978	1.87089	-0.642896	0.641526	1.67489	1.54921
1.41	-0.137543	-0.0536542	0.147931	-0.330166	0.816608	-0.608608	1.04373	-0.111657	-0.100192	1.5291	0.590883	-0.138602	-0.0180727	1.04566	-0.0448106	0.0690787	1.55403	0.655435	-0.106953	-0.0180727	-0.477991	0.0364031	-0.0337605	1.83991	-0.857441	0.350437	1.95245	1.63009	1.96345	-0.657781	0.69623	1.69466	1.54923
1.42	-0.140882	-0.0527999	0.153771	-0.324625	0.836836	-0.609506	1.00458	-0.113454	-0.107374	1.46791	0.562859	-0.148881	-0.0180727	1.00675	-0.0486207	0.0604663	1.49017	0.63539	-0.103435	-0.0180727	-0.454397	0.0342928	-0.0484011	1.92613	-0.889554	0.394337	1.95168	1.61421	2.05324	-0.6673	0.750476	1.70743	1.55067
1.43	-0.142996	-0.051629	0.159381	-0.318589	0.858311	-0.610509	0.96215	-0.115575	-0.115976	1.40202	0.526685	-0.159291	-0.0180727	0.963728	-0.0532153	0.049893	1.42051	0.608889	-0.0988509	-0.0180727	-0.43011	0.0316348	-0.0623171	2.01243	-0.919241	0.446122	1.93527	1.60121	2.1371	-0.671691	0.802666	1.71378	1.55312
1.44	-0.143583	-0.0499769	0.16453	-0.312085	0.881162	-0.611636	0.915844	-0.118007	-0.126359	1.33037	0.480235	-0.168592	-0.0180727	0.91581	-0.0582978	0.0367915	1.34365	0.57319	-0.0923983	-0.0180727	-0.405542	0.0282627	-0.0745695	2.09729	-0.947611	0.506788	1.90485	1.58966	2.21201	-0.671671	0.85119	1.71458	1.55592
1.45	-0.14237	-0.0476509	0.168937	-0.305164	0.905493	-0.61291	0.865082	-0.120695	-0.138896	1.25166	0.421365	-0.175083	-0.0180727	0.862231	-0.0634441	0.0205055	1.25803	0.525252	-0.0830502	-0.0180727	-0.381203	0.0240281	-0.0841842	2.17972	-0.975909	0.577221	1.8628	1.57808	2.27539	-0.668447	0.894595	1.7109	1.55827
1.46	-0.139178	-0.0444561	0.172273	-0.297906	0.931376	-0.614348	0.809451	-0.123532	-0.153948	1.16461	0.348184	-0.176738	-0.0180727	0.802434	-0.0681211	0.000338696	1.16216	0.462088	-0.0696936	-0.0180727	-0.357633	0.0188256	-0.090277	2.25937	-1.00529	0.658071	1.81206	1.56535	2.3254	-0.663672	0.931764	1.70398	1.55942
1.47	-0.134009	-0.0402291	0.174198	-0.290434	0.958823	-0.615949	0.748919	-0.126382	-0.171831	1.06822	0.259425	-0.171447	-0.0180727	0.736296	-0.0717175	-0.0243546	1.055	0.381278	-0.0513516	-0.0180727	-0.335288	0.0126111	-0.092203	2.33655	-1.03663	0.749634	1.75585	1.55106	2.36117	-0.659333	0.962107	1.69513	1.55875
1.48	-0.127124	-0.0348743	0.174415	-0.28291	0.987733	-0.61769	0.684052	-0.129103	-0.19277	0.962142	0.154934	-0.157351	-0.0180727	0.664377	-0.0736004	-0.0540412	0.93637	0.281586	-0.0274556	-0.0180727	-0.314423	0.00541261	-0.0896876	2.41216	-1.0704	0.851811	1.69731	1.53582	2.38294	-0.657569	0.985697	1.68559	1.55593
1.49	-0.119089	-0.0284058	0.172728	-0.275514	1.01785	-0.619518	0.616169	-0.131579	-0.216834	0.847079	0.0361853	-0.133241	-0.0180727	0.588126	-0.0732156	-0.0888695	0.807468	0.16362	0.00188584	-0.0180727	-0.294995	-0.0026604	-0.0828951	2.48767	-1.10668	0.964229	1.63925	1.52123	2.39206	-0.660432	1.00331	1.67641	1.55107
1.5	-0.110749	-0.0209886	0.1691	-0.268433	1.04879	-0.621355	0.54738	-0.133722	-0.243871	0.725099	-0.0933075	-0.0989707	-0.0180727	0.509968	-0.07024	-0.128557	0.671251	0.0303869	0.0356929	-0.0180727	-0.276653	-0.0114012	-0.0724163	2.5653	-1.14515	1.08658	1.58383	1.50941	2.3908	-0.669658	1.01637	1.66835	1.54476
1.51	-0.103123	-0.012962	0.163672	-0.261816	1.08003	-0.623109	0.480453	-0.135462	-0.273436	0.599775	-0.227869	-0.0557832	-0.0180727	0.433204	-0.0647532	-0.172346	0.532631	-0.112457	0.0720735	-0.0180727	-0.258827	-0.02049	-0.0591907	2.6481	-1.18525	1.21907	1.53246	1.50235	2.3821	-0.686496	1.02669	1.66187	1.53797
1.52	-0.0972137	-0.00482637	0.156767	-0.255752	1.11098	-0.624688	0.418505	-0.136742	-0.304748	0.476092	-0.360005	-0.00644942	-0.0180727	0.361687	-0.0573633	-0.219051	0.398297	-0.256883	0.108398	-0.0180727	-0.240919	-0.0294935	-0.044377	2.74018	-1.22612	1.36291	1.48578	1.50108	2.36919	-0.711622	1.03624	1.65712	1.53177
1.53	-0.0938047	0.0028155	0.148858	-0.250287	1.14105	-0.626015	0.364578	-0.137529	-0.336678	0.36002	-0.481337	0.0448904	-0.0180727	0.299301	-0.0492162	-0.267174	0.276052	-0.393463	0.141703	-0.0180727	-0.222527	-0.037891	-0.0291974	2.8466	-1.26672	1.52049	1.44381	1.50539	2.35512	-0.745128	1.0467	1.65406	1.52715
1.54	-0.0932719	0.00935352	0.140514	-0.245509	1.16974	-0.627042	0.321167	-0.137845	-0.367832	0.25779	-0.584074	0.0932514	-0.0180727	0.249325	-0.0418363	-0.315019	0.173657	-0.513031	0.169268	-0.0180727	-0.203639	-0.0451342	-0.0147778	2.97306	-1.30579	1.6953	1.40612	1.51395	2.34224	-0.78656	1.05906	1.65251	1.52489
1.55	-0.0954769	0.0142887	0.132331	-0.241632	1.19686	-0.62775	0.289791	-0.137806	-0.396729	0.174919	-0.662678	0.133682	-0.0180727	0.213798	-0.0367976	-0.360727	0.0973658	-0.608643	0.189174	-0.0180727	-0.184735	-0.0507352	-0.00201544	3.12515	-1.34193	1.89117	1.37211	1.52479	2.3317	-0.834994	1.07316	1.65225	1.52546
1.56	-0.0997649	0.0173467	0.124848	-0.238801	1.22263	-0.628186	0.270694	-0.137647	-0.422027	0.115229	-0.715074	0.162343	-0.0180727	0.193057	-0.0353119	-0.402204	0.0505739	-0.677074	0.200675	-0.0180727	-0.166768	-0.0543669	0.00849496	3.30712	-1.37356	2.11116	1.34118	1.53605	2.32304	-0.889149	1.08747	1.65307	1.52895
1.57	-0.105093	0.0185452	0.118481	-0.237081	1.24726	-0.628418	0.26281	-0.137695	-0.442683	0.0801658	-0.742797	0.177427	-0.0180727	0.18568	-0.0379084	-0.437167	0.0331771	-0.719108	0.204319	-0.0180727	-0.150997	-0.0559415	0.0164753	3.52041	-1.39913	2.35601	1.31286	1.54642	2.31403	-0.947508	1.09888	1.65482	1.53505
